<svg width="24" height="24" viewBox="0 0 24 24" fill="none" xmlns="http://www.w3.org/2000/svg">
<path d="M14.58 2.32595C14.4538 2.2643 14.3127 2.23935 14.173 2.25393C14.0333 2.26852 13.9005 2.32206 13.7897 2.40845L7.24219 7.50001H3C2.60218 7.50001 2.22064 7.65804 1.93934 7.93935C1.65804 8.22065 1.5 8.60218 1.5 9.00001V15C1.5 15.3978 1.65804 15.7794 1.93934 16.0607C2.22064 16.342 2.60218 16.5 3 16.5H7.24219L13.7897 21.5916C13.921 21.6945 14.0831 21.7503 14.25 21.75C14.4489 21.75 14.6397 21.671 14.7803 21.5303C14.921 21.3897 15 21.1989 15 21V3.00001C15.0001 2.8596 14.9608 2.72199 14.8865 2.60282C14.8123 2.48365 14.7061 2.38772 14.58 2.32595Z" fill="#F0F5FD"/>
<path d="M21.3103 11.9999L23.0306 10.2806C23.1713 10.1398 23.2504 9.94895 23.2504 9.74993C23.2504 9.55091 23.1713 9.36003 23.0306 9.2193C22.8899 9.07857 22.699 8.99951 22.5 8.99951C22.301 8.99951 22.1101 9.07857 21.9694 9.2193L20.25 10.9396L18.5306 9.2193C18.3899 9.07857 18.199 8.99951 18 8.99951C17.801 8.99951 17.6101 9.07857 17.4694 9.2193C17.3286 9.36003 17.2496 9.55091 17.2496 9.74993C17.2496 9.94895 17.3286 10.1398 17.4694 10.2806L19.1897 11.9999L17.4694 13.7193C17.3286 13.86 17.2496 14.0509 17.2496 14.2499C17.2496 14.449 17.3286 14.6398 17.4694 14.7806C17.6101 14.9213 17.801 15.0003 18 15.0003C18.199 15.0003 18.3899 14.9213 18.5306 14.7806L20.25 13.0602L21.9694 14.7806C22.1101 14.9213 22.301 15.0003 22.5 15.0003C22.699 15.0003 22.8899 14.9213 23.0306 14.7806C23.1713 14.6398 23.2504 14.449 23.2504 14.2499C23.2504 14.0509 23.1713 13.86 23.0306 13.7193L21.3103 11.9999Z" fill="#F0F5FD"/>
</svg>
