<svg width="24" height="24" viewBox="0 0 24 24" fill="none" xmlns="http://www.w3.org/2000/svg">
<path d="M21.75 6.73503V17.265C21.7486 17.5319 21.6757 17.7936 21.5388 18.0227C21.4019 18.2519 21.2061 18.4401 20.9717 18.5678C20.7373 18.6955 20.473 18.7581 20.2062 18.7489C19.9395 18.7397 19.6801 18.6592 19.455 18.5157L12 13.7682V17.265C11.9986 17.5319 11.9257 17.7936 11.7888 18.0227C11.6519 18.2519 11.4561 18.4401 11.2217 18.5678C10.9873 18.6955 10.723 18.7581 10.4562 18.7489C10.1895 18.7397 9.93005 18.6592 9.70501 18.5157L1.4372 13.2507C1.22655 13.117 1.05309 12.9322 0.932899 12.7136C0.812712 12.495 0.749695 12.2495 0.749695 12C0.749695 11.7505 0.812712 11.5051 0.932899 11.2865C1.05309 11.0678 1.22655 10.8831 1.4372 10.7494L9.70501 5.4844C9.92999 5.34056 10.1895 5.25975 10.4563 5.25042C10.7232 5.24109 10.9877 5.30358 11.2222 5.43135C11.4567 5.55913 11.6525 5.74751 11.7894 5.97683C11.9262 6.20615 11.9989 6.46799 12 6.73503V10.2319L19.455 5.4844C19.68 5.34056 19.9395 5.25975 20.2063 5.25042C20.4732 5.24109 20.7377 5.30358 20.9722 5.43135C21.2067 5.55913 21.4025 5.74751 21.5394 5.97683C21.6762 6.20615 21.7489 6.46799 21.75 6.73503Z" fill="#F0F5FD"/>
</svg>
