<svg width="24" height="24" viewBox="0 0 24 24" fill="none" xmlns="http://www.w3.org/2000/svg">
<path d="M14.58 2.32595C14.4538 2.2643 14.3127 2.23935 14.173 2.25393C14.0333 2.26852 13.9005 2.32206 13.7897 2.40845L7.24219 7.50001H3C2.60218 7.50001 2.22064 7.65804 1.93934 7.93935C1.65804 8.22065 1.5 8.60218 1.5 9.00001V15C1.5 15.3978 1.65804 15.7794 1.93934 16.0607C2.22064 16.342 2.60218 16.5 3 16.5H7.24219L13.7897 21.5916C13.921 21.6945 14.0831 21.7503 14.25 21.75C14.4489 21.75 14.6397 21.671 14.7803 21.5303C14.921 21.3897 15 21.1989 15 21V3.00001C15.0001 2.8596 14.9608 2.72199 14.8865 2.60282C14.8123 2.48365 14.7061 2.38772 14.58 2.32595Z" fill="#F0F5FD"/>
</svg>
